# xmcd
#
# Track frame offsets: 
#        150
#        15047
#        25899
#        46645
#        68226
#        81917
#        96014
#        110762
#        129335
#        144832
#        166704
#        190758
#
# Disc length: 2679 seconds
#
# Revision: 0
# Processed by: cddbd v1.5.1PL0 Copyright (c) Steve Scherf et al.
# Submitted via: ExactAudioCopy v0.90b4
#
DISCID=860a750c
DTITLE=Carla Brownlee - Hurricane Carla
DYEAR=2002
DGENRE=Blues
TTITLE0=The Vine Avenue Shoe Fly
TTITLE1=Paris in the Spring
TTITLE2=Virtue
TTITLE3=Crazy Harry
TTITLE4=Empty Bed Blues
TTITLE5=Boogie Woogie Country Girl
TTITLE6=Harlem Nocturne
TTITLE7=Bluebeard
TTITLE8=Cannonball
TTITLE9=Hairdressin' Women
TTITLE10=Moe Facky
TTITLE11=Last Call for Alcohol
EXTD=
EXTT0=
EXTT1=
EXTT2=
EXTT3=
EXTT4=
EXTT5=
EXTT6=
EXTT7=
EXTT8=
EXTT9=
EXTT10=
EXTT11=
PLAYORDER=
